<svg width="8" height="10" viewBox="0 0 8 10" fill="none" xmlns="http://www.w3.org/2000/svg">
<path d="M2.4556 5.92503L4.89055 7.72904M2.4556 5.92503C2.57935 5.72963 2.65154 5.48239 2.65154 5.1907C2.65154 4.899 2.57935 4.66309 2.4556 4.4819M2.4556 5.92503C2.24735 6.25386 1.89308 6.43587 1.49105 6.43587C0.850133 6.43587 0.330566 5.97328 0.330566 5.1907C0.330566 4.40812 0.850133 4.02704 1.49105 4.02704C1.89308 4.02704 2.24735 4.17698 2.4556 4.4819M4.97067 2.74233L2.4556 4.4819M4.97067 2.74233C5.14202 3.18396 5.55985 3.38469 6.04811 3.38469C6.68903 3.38469 7.2086 3.03881 7.2086 2.25623C7.2086 1.47365 6.68903 1.05615 6.04811 1.05615C5.40719 1.05615 4.88763 1.47365 4.88763 2.25623C4.88763 2.44263 4.9171 2.60426 4.97067 2.74233ZM7.2086 7.93001C7.2086 8.71259 6.68903 9.08558 6.04811 9.08558C5.40719 9.08558 4.88763 8.71259 4.88763 7.93001C4.88763 7.14743 5.40719 6.67675 6.04811 6.67675C6.68903 6.67675 7.2086 7.14743 7.2086 7.93001Z" stroke="#FFFDF9" stroke-width="0.669119" stroke-linecap="round" stroke-linejoin="round"/>
</svg>
